<svg xmlns:dc="http://purl.org/dc/elements/1.1/" xmlns:cc="http://creativecommons.org/ns#" xmlns:rdf="http://www.w3.org/1999/02/22-rdf-syntax-ns#" xmlns:svg="http://www.w3.org/2000/svg" xmlns="http://www.w3.org/2000/svg" xmlns:sodipodi="http://sodipodi.sourceforge.net/DTD/sodipodi-0.dtd" xmlns:inkscape="http://www.inkscape.org/namespaces/inkscape" version="1.1" x="0px" y="0px" viewBox="0 0 100 100"><g transform="translate(0,-952.36218)"><path style="color:#ffffff;enable-background:accumulate;" d="m 15,976.36218 c -0.890449,0 -1.741539,0.1863 -2.5,0.5312 l 35.75,31.96882 c 0.850942,0.7605 2.649058,0.7605 3.5,0 L 87.5,976.89338 c -0.75846,-0.3449 -1.60955,-0.5312 -2.5,-0.5312 l -70,0 z m -5.375,3.3438 C 9.231633,980.50548 9,981.40758 9,982.36218 l 0,40.00002 c 0,0.9646 0.223865,1.8816 0.625,2.6875 L 35.96875,1003.2372 9.625,979.70598 z m 80.75,0 -26.34375,23.53122 26.34375,21.8125 c 0.40114,-0.8059 0.625,-1.7229 0.625,-2.6875 l 0,-40.00002 c 0,-0.9546 -0.23163,-1.8567 -0.625,-2.6562 z M 39,1005.956 12.5625,1027.831 c 0.745148,0.3305 1.567061,0.5312 2.4375,0.5312 l 70,0 c 0.87044,0 1.69235,-0.2007 2.4375,-0.5312 L 61,1005.956 l -6.59375,5.875 c -2.500658,2.2347 -6.311842,2.2347 -8.8125,0 L 39,1005.956 z" fill="#ffffff" stroke="none" marker="none" visibility="visible" display="inline" overflow="visible"/></g></svg>
